<svg version="1.1" xmlns="http://www.w3.org/2000/svg" xmlns:xlink="http://www.w3.org/1999/xlink" width="316.76157" height="93.70978" viewBox="0,0,316.76157,93.70978"><g transform="translate(-201.7682,-132.29656)"><g stroke="none" stroke-miterlimit="10"><text transform="translate(202.92937,216.98492) scale(0.89321,0.89321)" font-size="40" xml:space="preserve" fill="#ff0094" stroke-width="1" font-family="&quot;Luckiest Guy&quot;, Sans Serif" font-weight="400" text-anchor="start"><tspan x="0" dy="0">Gramby's palette</tspan></text><path d="M302.40231,157.01533c0,-11.77061 20.00345,-27.85607 46.54717,-24.18637c14.50514,2.00536 20.47622,17.21885 27.78207,18.21651c8.91077,1.21682 21.07274,-11.66087 37.66915,-7.49064c11.22896,2.82154 8.52006,11.9821 8.52006,13.4605c0,13.71439 -26.97897,24.83209 -60.25924,24.83209c-33.28025,0 -60.25922,-11.11771 -60.25922,-24.83209zM362.80498,171.14204c9.66083,0 17.4925,-3.74558 17.4925,-8.36598c0,-4.6204 -7.83167,-8.36596 -17.4925,-8.36596c-9.66083,0 -17.49246,3.74556 -17.49246,8.36596c0,4.6204 7.83165,8.36598 17.49246,8.36598z" fill="#ffd99a" stroke-width="0"/><path d="M324.073,157.072c0,1.89015 -3.66044,3.42243 -8.17584,3.42243c-4.51538,0 -8.17584,-1.53228 -8.17584,-3.42243c0,-1.89015 3.66044,-3.42243 8.17584,-3.42243c4.51538,0 8.17584,1.53228 8.17584,3.42243z" fill="#ff0000" stroke-width="0"/><path d="M329.77708,145.66386c0,1.89017 -3.66046,3.42243 -8.17584,3.42243c-4.5154,0 -8.17582,-1.53228 -8.17582,-3.42243c0,-1.89017 3.66044,-3.42245 8.17582,-3.42245c4.5154,0 8.17584,1.53228 8.17584,3.42245z" fill="#4aff00" stroke-width="0"/><path d="M346.12874,138.43871c0,1.89017 -3.66044,3.42243 -8.17584,3.42243c-4.5154,0 -8.17584,-1.53228 -8.17584,-3.42243c0,-1.89017 3.66044,-3.42245 8.17584,-3.42245c4.5154,0 8.17584,1.53228 8.17584,3.42245z" fill="#0010ff" stroke-width="0"/></g></g></svg>